sfk_cyclingleg_x_-0.1_y_-0.05_states
version=1
nRows=6
nColumns=53
inDegrees=yes

# SIMM Motion File Header:
name sfk_cyclingleg_x_-0.1_y_-0.05_states
datacolumns 53
datarows 6
otherdata 1
range 0.41154289 0.41245964
endheader
time	/jointset/bb/crank_angle/value	/jointset/bb/crank_angle/speed	/jointset/spindle/pedal_angle_r/value	/jointset/spindle/pedal_angle_r/speed	/jointset/ground_pelvis/pelvis_tilt/value	/jointset/ground_pelvis/pelvis_tilt/speed	/jointset/ground_pelvis/pelvis_list/value	/jointset/ground_pelvis/pelvis_list/speed	/jointset/ground_pelvis/pelvis_rotation/value	/jointset/ground_pelvis/pelvis_rotation/speed	/jointset/ground_pelvis/pelvis_tx/value	/jointset/ground_pelvis/pelvis_tx/speed	/jointset/ground_pelvis/pelvis_ty/value	/jointset/ground_pelvis/pelvis_ty/speed	/jointset/ground_pelvis/pelvis_tz/value	/jointset/ground_pelvis/pelvis_tz/speed	/jointset/hip_r/hip_angle_r/value	/jointset/hip_r/hip_angle_r/speed	/jointset/hip_r/hip_adduction_r/value	/jointset/hip_r/hip_adduction_r/speed	/jointset/hip_r/hip_rotation_r/value	/jointset/hip_r/hip_rotation_r/speed	/jointset/knee_r/knee_angle_r/value	/jointset/knee_r/knee_angle_r/speed	/jointset/knee_r/tib_tx_r/value	/jointset/knee_r/tib_tx_r/speed	/jointset/knee_r/tib_ty_r/value	/jointset/knee_r/tib_ty_r/speed	/jointset/tib_pat_r/pat_angle_r/value	/jointset/tib_pat_r/pat_angle_r/speed	/jointset/tib_pat_r/pat_tx_r/value	/jointset/tib_pat_r/pat_tx_r/speed	/jointset/tib_pat_r/pat_ty_r/value	/jointset/tib_pat_r/pat_ty_r/speed	/jointset/ankle_r/ankle_angle_r/value	/jointset/ankle_r/ankle_angle_r/speed	/jointset/subtalar_r/subtalar_angle_r/value	/jointset/subtalar_r/subtalar_angle_r/speed	/jointset/mtp_r/mtp_angle_r/value	/jointset/mtp_r/mtp_angle_r/speed	/forceset/bifemlh_r/activation	/forceset/bifemlh_r/fiber_length	/forceset/bifemsh_r/activation	/forceset/bifemsh_r/fiber_length	/forceset/glut_max2_r/activation	/forceset/glut_max2_r/fiber_length	/forceset/vas_int_r/activation	/forceset/vas_int_r/fiber_length	/forceset/med_gas_r/activation	/forceset/med_gas_r/fiber_length	/forceset/tib_ant_r/activation	/forceset/tib_ant_r/fiber_length
      0.41154289	   -207.73251882	   -480.13863232	    205.02154883	    267.83827349	      0.00000000	      0.00000000	      0.00000000	     -0.00000000	     -0.00000000	     -0.00000000	     -0.10000000	      0.00000000	     -0.05000000	     -0.00000000	      0.00000000	      0.00000000	     40.31249958	     80.00222099	      4.38369025	     -0.20763162	      0.39845657	    -22.12762822	    -64.37662707	   -280.62548482	      0.00504244	      0.01065162	     -0.47732497	     -0.08878175	     17.46915882	      3.60284035	      0.04149706	     -0.08577250	     -0.02276719	      0.00964973	     21.78203387	    -11.04401630	      0.00000000	      0.00000000	     -0.00000000	     -0.00000000	     -0.02754403	      0.11503503	     -0.02754403	      0.16395559	     -0.02754403	      0.13045544	     -0.02754403	      0.13226598	     -0.02754403	      0.14434503	     -0.02754403	      0.11674725
      0.41189844	   -207.90323048	   -480.13863232	    205.11681254	    268.03382848	      0.00000000	      0.00000000	      0.00000000	     -0.00000000	     -0.00000000	     -0.00000000	     -0.10000000	      0.00000000	     -0.05000000	     -0.00000000	      0.00000000	      0.00000000	     40.34098220	     80.21647712	      4.38361533	     -0.21379527	      0.39058909	    -22.12804589	    -64.47643463	   -280.80584733	      0.00504620	      0.01047176	     -0.47735656	     -0.08890151	     17.47043262	      3.56249815	      0.04146654	     -0.08589081	     -0.02276376	      0.00962868	     21.77813651	    -10.87914967	      0.00000000	      0.00000000	     -0.00000000	     -0.00000000	     -0.02758981	      0.11501075	     -0.02758981	      0.16390118	     -0.02758981	      0.13047653	     -0.02758981	      0.13233577	     -0.02758981	      0.14432858	     -0.02758981	      0.11675099
      0.41222856	   -208.06173358	   -480.13863232	    205.20532588	    268.21681670	      0.00000000	      0.00000000	      0.00000000	     -0.00000000	     -0.00000000	     -0.00000000	     -0.10000000	      0.00000000	     -0.05000000	     -0.00000000	      0.00000000	      0.00000000	     40.36749597	     80.41481100	      4.38354380	     -0.21952701	      0.38328414	    -22.12837324	    -64.56916147	   -280.97136305	      0.00504963	      0.01030439	     -0.47738592	     -0.08901199	     17.47160251	      3.52518957	      0.04143817	     -0.08600033	     -0.02276059	      0.00960853	     21.77457037	    -10.72600546	      0.00000000	      0.00000000	     -0.00000000	     -0.00000000	     -0.02763231	      0.11498830	     -0.02763231	      0.16385068	     -0.02763231	      0.13049615	     -0.02763231	      0.13240052	     -0.02763231	      0.14421922	     -0.02763231	      0.11675442
      0.41226157	   -208.07758389	   -480.13863232	    205.21418054	    268.23519037	      0.00000000	      0.00000000	      0.00000000	     -0.00000000	     -0.00000000	     -0.00000000	     -0.10000000	      0.00000000	     -0.05000000	     -0.00000000	      0.00000000	      0.00000000	     40.37015095	     80.43461288	      4.38353655	     -0.22010065	      0.38255363	    -22.12840281	    -64.57843716	   -280.98781187	      0.00504997	      0.01028763	     -0.47738886	     -0.08902300	     17.47171882	      3.52146666	      0.04143533	     -0.08601126	     -0.02276027	      0.00960648	     21.77421654	    -10.71068754	      0.00000000	      0.00000000	     -0.00000000	     -0.00000000	     -0.02763656	      0.11498606	     -0.02763656	      0.16384562	     -0.02763656	      0.13049812	     -0.02763656	      0.13240700	     -0.02763656	      0.14427443	     -0.02763656	      0.11675476
      0.41229458	   -208.09343420	   -480.13863232	    205.22303581	    268.25357762	      0.00000000	      0.00000000	      0.00000000	     -0.00000000	     -0.00000000	     -0.00000000	     -0.10000000	      0.00000000	     -0.05000000	     -0.00000000	      0.00000000	      0.00000000	     40.37280658	     80.45440906	      4.38352927	     -0.22067438	      0.38182313	    -22.12843182	    -64.58771338	   -281.00424205	      0.00505031	      0.01027087	     -0.47739180	     -0.08903400	     17.47183501	      3.51774520	      0.04143249	     -0.08602219	     -0.02275995	      0.00960443	     21.77386321	    -10.69536899	      0.00000000	      0.00000000	     -0.00000000	     -0.00000000	     -0.02764081	      0.11498382	     -0.02764081	      0.16384057	     -0.02764081	      0.13050008	     -0.02764081	      0.13241348	     -0.02764081	      0.14427419	     -0.02764081	      0.11675510
      0.41245964	   -208.17268575	   -480.13863232	    205.26732127	    268.34571735	      0.00000000	      0.00000000	      0.00000000	     -0.00000000	     -0.00000000	     -0.00000000	     -0.10000000	      0.00000000	     -0.05000000	     -0.00000000	      0.00000000	      0.00000000	     40.38609453	     80.55330463	      4.38349261	     -0.22354425	      0.37817061	    -22.12856835	    -64.63410263	   -281.08611375	      0.00505200	      0.01018701	     -0.47740650	     -0.08908891	     17.47241411	      3.49915975	      0.04141829	     -0.08607680	     -0.02275837	      0.00959407	     21.77210416	    -10.61876692	      0.00000000	      0.00000000	     -0.00000000	     -0.00000000	     -0.02766206	      0.11497264	     -0.02766206	      0.16381532	     -0.02766206	      0.13050992	     -0.02766206	      0.13244585	     -0.02766206	      0.14426747	     -0.02766206	      0.11675680
